<?xml version="1.0" encoding="UTF-8" standalone="no"?>
<!-- Created with Inkscape (http://www.inkscape.org/) -->

<svg
   width="110mm"
   height="110mm"
   viewBox="0 0 110 110"
   version="1.1"
   id="svg1"
   xml:space="preserve"
   inkscape:version="1.4.2 (ebf0e940d0, 2025-05-08)"
   sodipodi:docname="icon-foreground-only.svg"
   xmlns:inkscape="http://www.inkscape.org/namespaces/inkscape"
   xmlns:sodipodi="http://sodipodi.sourceforge.net/DTD/sodipodi-0.dtd"
   xmlns="http://www.w3.org/2000/svg"
   xmlns:svg="http://www.w3.org/2000/svg"><sodipodi:namedview
     id="namedview1"
     pagecolor="#ffffff"
     bordercolor="#000000"
     borderopacity="0.25"
     inkscape:showpageshadow="2"
     inkscape:pageopacity="0.0"
     inkscape:pagecheckerboard="true"
     inkscape:deskcolor="#d1d1d1"
     inkscape:document-units="mm"
     inkscape:zoom="0.73953568"
     inkscape:cx="-162.94008"
     inkscape:cy="471.91773"
     inkscape:window-width="2560"
     inkscape:window-height="1382"
     inkscape:window-x="0"
     inkscape:window-y="0"
     inkscape:window-maximized="1"
     inkscape:current-layer="g2" /><defs
     id="defs1"><inkscape:path-effect
       effect="fillet_chamfer"
       id="path-effect3"
       is_visible="true"
       lpeversion="1"
       nodesatellites_param="F,0,0,1,0,1.5875,0,1 @ F,0,0,1,0,1.5875,0,1 @ F,0,0,1,0,1.5875,0,1 @ F,0,0,1,0,1.5875,0,1 @ F,0,0,1,0,1.5875,0,1 @ F,0,0,1,0,1.5875,0,1 @ F,0,0,1,0,1.5875,0,1 @ F,0,0,1,0,1.5875,0,1"
       radius="6"
       unit="px"
       method="auto"
       mode="F"
       chamfer_steps="1"
       flexible="false"
       use_knot_distance="true"
       apply_no_radius="true"
       apply_with_radius="true"
       only_selected="false"
       hide_knots="false" /></defs><g
     inkscape:label="Layer 1"
     inkscape:groupmode="layer"
     id="layer1"
     transform="translate(20,20)"><g
       id="g2"><g
         id="g3"
         inkscape:label="shifts"><rect
           style="fill:#917fa0;fill-opacity:1;stroke:none;stroke-width:0.734205;stroke-dasharray:none;stroke-opacity:1"
           id="rect3-6"
           width="8.7340002"
           height="8.4706535"
           x="12.837671"
           y="-12.83767"
           transform="matrix(0.58123776,0.81373378,-0.58123776,0.81373378,0,0)"
           inkscape:label="shift"
           rx="2"
           ry="2" /><rect
           style="fill:#917fa0;fill-opacity:1;stroke:none;stroke-width:0.734205;stroke-dasharray:none;stroke-opacity:1"
           id="rect3-1"
           width="8.7340002"
           height="8.4706535"
           x="21.439999"
           y="-21.439999"
           transform="matrix(0.58123776,0.81373378,-0.58123776,0.81373378,0,0)"
           inkscape:label="shift"
           rx="2"
           ry="2" /><rect
           style="fill:#917fa0;fill-opacity:1;stroke:none;stroke-width:0.734205;stroke-dasharray:none;stroke-opacity:1"
           id="rect3-4"
           width="8.7340002"
           height="8.4706535"
           x="30.042326"
           y="-30.042326"
           transform="matrix(0.58123776,0.81373378,-0.58123776,0.81373378,0,0)"
           inkscape:label="shift"
           rx="2"
           ry="2" /><rect
           style="fill:#917fa0;fill-opacity:1;stroke:none;stroke-width:0.734205;stroke-dasharray:none;stroke-opacity:1"
           id="rect3-65"
           width="8.7340002"
           height="8.4706535"
           x="55.849304"
           y="-55.849304"
           transform="matrix(0.58123776,0.81373378,-0.58123776,0.81373378,0,0)"
           inkscape:label="shift"
           rx="2"
           ry="2" /><rect
           style="fill:#917fa0;fill-opacity:1;stroke:none;stroke-width:0.734205;stroke-dasharray:none;stroke-opacity:1"
           id="rect3-6-4-4"
           width="8.7340002"
           height="8.4706535"
           x="12.83767"
           y="4.3669829"
           transform="matrix(0.58123776,0.81373378,-0.58123776,0.81373378,0,0)"
           inkscape:label="shift"
           rx="2"
           ry="2" /><rect
           style="fill:#917fa0;fill-opacity:1;stroke:none;stroke-width:0.734205;stroke-dasharray:none;stroke-opacity:1"
           id="rect3-1-4"
           width="8.7340002"
           height="8.4706535"
           x="30.042326"
           y="-12.837671"
           transform="matrix(0.58123776,0.81373378,-0.58123776,0.81373378,0,0)"
           inkscape:label="shift"
           rx="2"
           ry="2" /><rect
           style="fill:#917fa0;fill-opacity:1;stroke:none;stroke-width:0.734205;stroke-dasharray:none;stroke-opacity:1"
           id="rect3-4-3"
           width="8.7340002"
           height="8.4706535"
           x="38.64465"
           y="-21.439999"
           transform="matrix(0.58123776,0.81373378,-0.58123776,0.81373378,0,0)"
           inkscape:label="shift"
           rx="2"
           ry="2" /><rect
           style="fill:#917fa0;fill-opacity:1;stroke:none;stroke-width:0.734205;stroke-dasharray:none;stroke-opacity:1"
           id="rect3-10-0"
           width="8.7340002"
           height="8.4706535"
           x="47.246979"
           y="-30.042326"
           transform="matrix(0.58123776,0.81373378,-0.58123776,0.81373378,0,0)"
           inkscape:label="shift"
           rx="2"
           ry="2" /><rect
           style="fill:#917fa0;fill-opacity:1;stroke:none;stroke-width:0.734205;stroke-dasharray:none;stroke-opacity:1"
           id="rect3-61-7"
           width="8.7340002"
           height="8.4706535"
           x="55.849304"
           y="-38.64465"
           transform="matrix(0.58123776,0.81373378,-0.58123776,0.81373378,0,0)"
           inkscape:label="shift"
           rx="2"
           ry="2" /><rect
           style="fill:#917fa0;fill-opacity:1;stroke:none;stroke-width:0.734205;stroke-dasharray:none;stroke-opacity:1"
           id="rect3-65-8"
           width="8.7340002"
           height="8.4706535"
           x="64.451637"
           y="-47.246979"
           transform="matrix(0.58123776,0.81373378,-0.58123776,0.81373378,0,0)"
           inkscape:label="shift"
           ry="2"
           rx="2" /><rect
           style="fill:#917fa0;fill-opacity:1;stroke:none;stroke-width:0.734205;stroke-dasharray:none;stroke-opacity:1"
           id="rect3-6-4-1"
           width="8.7340002"
           height="8.4706535"
           x="21.439999"
           y="12.96931"
           transform="matrix(0.58123776,0.81373378,-0.58123776,0.81373378,0,0)"
           inkscape:label="shift"
           rx="2"
           ry="2" /><rect
           style="fill:#917fa0;fill-opacity:1;stroke:none;stroke-width:0.734205;stroke-dasharray:none;stroke-opacity:1"
           id="rect3-10-06"
           width="8.7340002"
           height="8.4706535"
           x="55.849304"
           y="-21.439999"
           transform="matrix(0.58123776,0.81373378,-0.58123776,0.81373378,0,0)"
           inkscape:label="shift"
           rx="2"
           ry="2" /><rect
           style="fill:#917fa0;fill-opacity:1;stroke:none;stroke-width:0.734205;stroke-dasharray:none;stroke-opacity:1"
           id="rect3-61-8"
           width="8.7340002"
           height="8.4706535"
           x="64.451637"
           y="-30.042326"
           transform="matrix(0.58123776,0.81373378,-0.58123776,0.81373378,0,0)"
           inkscape:label="shift"
           rx="2"
           ry="2" /><rect
           style="fill:#917fa0;fill-opacity:1;stroke:none;stroke-width:0.734205;stroke-dasharray:none;stroke-opacity:1"
           id="rect3-65-9"
           width="8.7340002"
           height="8.4706535"
           x="73.053963"
           y="-38.64465"
           transform="matrix(0.58123776,0.81373378,-0.58123776,0.81373378,0,0)"
           inkscape:label="shift"
           rx="2"
           ry="2" /><rect
           style="fill:#917fa0;fill-opacity:1;stroke:none;stroke-width:0.734205;stroke-dasharray:none;stroke-opacity:1"
           id="rect3-6-9"
           width="8.7340002"
           height="8.4706535"
           x="38.64465"
           y="12.96931"
           transform="matrix(0.58123776,0.81373378,-0.58123776,0.81373378,0,0)"
           inkscape:label="shift"
           ry="2"
           rx="2" /><rect
           style="fill:#917fa0;fill-opacity:1;stroke:none;stroke-width:0.734205;stroke-dasharray:none;stroke-opacity:1"
           id="rect3-6-4-5"
           width="8.7340002"
           height="8.4706535"
           x="30.042326"
           y="21.571636"
           transform="matrix(0.58123776,0.81373378,-0.58123776,0.81373378,0,0)"
           inkscape:label="shift"
           rx="2"
           ry="2" /><rect
           style="fill:#917fa0;fill-opacity:1;stroke:none;stroke-width:0.734205;stroke-dasharray:none;stroke-opacity:1"
           id="rect3-1-0"
           width="8.7340002"
           height="8.4706535"
           x="47.246979"
           y="4.3669829"
           transform="matrix(0.58123776,0.81373378,-0.58123776,0.81373378,0,0)"
           inkscape:label="shift"
           rx="2"
           ry="2" /><rect
           style="fill:#917fa0;fill-opacity:1;stroke:none;stroke-width:0.734205;stroke-dasharray:none;stroke-opacity:1"
           id="rect3-61-71"
           width="8.7340002"
           height="8.4706535"
           x="73.053963"
           y="-21.439999"
           transform="matrix(0.58123776,0.81373378,-0.58123776,0.81373378,0,0)"
           inkscape:label="shift"
           ry="2"
           rx="2" /><rect
           style="fill:#917fa0;fill-opacity:1;stroke:none;stroke-width:0.734205;stroke-dasharray:none;stroke-opacity:1"
           id="rect3-65-7"
           width="8.7340002"
           height="8.4706535"
           x="81.656288"
           y="-30.042326"
           transform="matrix(0.58123776,0.81373378,-0.58123776,0.81373378,0,0)"
           inkscape:label="shift"
           ry="2"
           rx="2" /><rect
           style="fill:#917fa0;fill-opacity:1;stroke:none;stroke-width:0.734205;stroke-dasharray:none;stroke-opacity:1"
           id="rect3-6-6"
           width="8.7340002"
           height="8.4706535"
           x="47.246979"
           y="21.571636"
           transform="matrix(0.58123776,0.81373378,-0.58123776,0.81373378,0,0)"
           inkscape:label="shift"
           rx="2"
           ry="2" /><rect
           style="fill:#917fa0;fill-opacity:1;stroke:none;stroke-width:0.734205;stroke-dasharray:none;stroke-opacity:1"
           id="rect3-6-4-10"
           width="8.7340002"
           height="8.4706535"
           x="38.64465"
           y="30.173962"
           transform="matrix(0.58123776,0.81373378,-0.58123776,0.81373378,0,0)"
           inkscape:label="shift"
           rx="2"
           ry="2" /></g><path
         style="fill:none;fill-opacity:1;stroke:#000000;stroke-width:0.482559;stroke-linejoin:miter;stroke-dasharray:none;stroke-opacity:1"
         d="m 1.5875,14 h 6.825 A 1.5875,1.5875 135 0 0 10,12.4125 V 1.5875 A 1.5875,1.5875 135 0 1 11.5875,0 h 56.825 A 1.5875,1.5875 45 0 1 70,1.5875 v 52.825 A 1.5875,1.5875 135 0 1 68.4125,56 H 31.5875 A 1.5875,1.5875 135 0 0 30,57.5875 v 10.825 A 1.5875,1.5875 135 0 1 28.4125,70 H 1.5875 A 1.5875,1.5875 45 0 1 0,68.4125 V 15.5875 A 1.5875,1.5875 135 0 1 1.5875,14 Z"
         id="path2"
         inkscape:label="calendar_outline"
         inkscape:path-effect="#path-effect3"
         inkscape:original-d="M 0,14 H 10 V 0 H 70 V 56 H 30 V 70 H 0 Z" /></g></g></svg>
